<mxfile host="app.diagrams.net" modified="2021-01-29T13:17:40.371Z" agent="5.0 (Windows NT 10.0; Win64; x64) AppleWebKit/537.36 (KHTML, like Gecko) Chrome/87.0.4280.141 Safari/537.36" etag="Cbvd0H8SFPaeIKQtX9S5" version="14.2.7" type="github">
  <diagram id="07fea595-8f29-1299-0266-81d95cde20df" name="Page-1">
    <mxGraphModel dx="-1615" dy="-425" grid="1" gridSize="10" guides="1" tooltips="1" connect="1" arrows="1" fold="1" page="1" pageScale="1" pageWidth="1169" pageHeight="827" background="#ffffff" math="0" shadow="0">
      <root>
        <mxCell id="0" />
        <mxCell id="1" parent="0" />
        <mxCell id="735" value="Parameter x" style="text;spacingTop=-5;html=1;fontSize=18;fontStyle=0;points=[];strokeColor=none;" parent="1" vertex="1">
          <mxGeometry x="3367.5" y="1582.5" width="80" height="20" as="geometry" />
        </mxCell>
        <mxCell id="749" value="WebSocial&lt;br&gt;" style="text;spacingTop=-5;align=center;verticalAlign=middle;fontSize=30;fontStyle=1;html=1;points=[]" parent="1" vertex="1">
          <mxGeometry x="2420" y="827" width="810" height="45" as="geometry" />
        </mxCell>
        <mxCell id="hrBNU91gVqwCMhpCuoij-753" value="&lt;span style=&quot;font-size: 15px&quot;&gt;index.js&lt;br&gt;Provider store={store}&lt;br&gt;APP&lt;br&gt;&lt;/span&gt;" style="rounded=0;whiteSpace=wrap;html=1;fontStyle=1;fontFamily=Times New Roman;" vertex="1" parent="1">
          <mxGeometry x="2767.5" y="890" width="150" height="70" as="geometry" />
        </mxCell>
        <mxCell id="hrBNU91gVqwCMhpCuoij-754" value="&lt;font&gt;&lt;font style=&quot;font-size: 14px&quot;&gt;redux-store&lt;br&gt;&lt;/font&gt;&lt;span style=&quot;font-size: 11px&quot;&gt;let reducers,&lt;/span&gt;&lt;br&gt;&lt;font style=&quot;font-size: 10px&quot;&gt;store = createStore(reducers&lt;/font&gt;&lt;span style=&quot;font-size: 11px&quot;&gt;)&lt;/span&gt;&lt;br&gt;&lt;br&gt;&lt;/font&gt;" style="whiteSpace=wrap;html=1;aspect=fixed;fontFamily=Times New Roman;fontStyle=1" vertex="1" parent="1">
          <mxGeometry x="2990" y="940" width="90" height="90" as="geometry" />
        </mxCell>
        <mxCell id="hrBNU91gVqwCMhpCuoij-756" value="&lt;b&gt;&lt;font style=&quot;font-size: 14px&quot;&gt;messagesReducers&lt;/font&gt;&lt;/b&gt;&lt;br&gt;inicialeState -&amp;gt;&lt;br&gt;return state" style="rounded=0;whiteSpace=wrap;html=1;fontFamily=Times New Roman;" vertex="1" parent="1">
          <mxGeometry x="3130" y="840" width="120" height="60" as="geometry" />
        </mxCell>
        <mxCell id="hrBNU91gVqwCMhpCuoij-757" value="&lt;b&gt;&lt;font style=&quot;font-size: 14px&quot;&gt;profileReducers&lt;/font&gt;&lt;/b&gt;&lt;br&gt;inicialeState -&amp;gt;&lt;br&gt;return state" style="rounded=0;whiteSpace=wrap;html=1;fontFamily=Times New Roman;" vertex="1" parent="1">
          <mxGeometry x="3130" y="910" width="120" height="60" as="geometry" />
        </mxCell>
        <mxCell id="hrBNU91gVqwCMhpCuoij-758" value="&lt;b&gt;&lt;font style=&quot;font-size: 14px&quot;&gt;navReducers&lt;/font&gt;&lt;/b&gt;&lt;br&gt;inicialeState -&amp;gt;&lt;br&gt;return state" style="rounded=0;whiteSpace=wrap;html=1;fontFamily=Times New Roman;" vertex="1" parent="1">
          <mxGeometry x="3130" y="980" width="120" height="60" as="geometry" />
        </mxCell>
        <mxCell id="hrBNU91gVqwCMhpCuoij-759" value="&lt;b&gt;&lt;font style=&quot;font-size: 14px&quot;&gt;newsReducers&lt;/font&gt;&lt;/b&gt;&lt;br&gt;inicialeState -&amp;gt;&lt;br&gt;return state" style="rounded=0;whiteSpace=wrap;html=1;fontFamily=Times New Roman;" vertex="1" parent="1">
          <mxGeometry x="3130" y="1050" width="120" height="60" as="geometry" />
        </mxCell>
        <mxCell id="hrBNU91gVqwCMhpCuoij-760" value="" style="endArrow=classic;html=1;fontFamily=Times New Roman;exitX=0;exitY=1;exitDx=0;exitDy=0;" edge="1" parent="1" source="hrBNU91gVqwCMhpCuoij-756" target="hrBNU91gVqwCMhpCuoij-754">
          <mxGeometry width="50" height="50" relative="1" as="geometry">
            <mxPoint x="3050" y="910" as="sourcePoint" />
            <mxPoint x="3100" y="860" as="targetPoint" />
          </mxGeometry>
        </mxCell>
        <mxCell id="hrBNU91gVqwCMhpCuoij-761" value="" style="endArrow=classic;html=1;fontFamily=Times New Roman;exitX=0;exitY=0.5;exitDx=0;exitDy=0;entryX=1;entryY=0.25;entryDx=0;entryDy=0;" edge="1" parent="1" source="hrBNU91gVqwCMhpCuoij-757" target="hrBNU91gVqwCMhpCuoij-754">
          <mxGeometry width="50" height="50" relative="1" as="geometry">
            <mxPoint x="3140" y="910" as="sourcePoint" />
            <mxPoint x="3090" y="954.7368421052632" as="targetPoint" />
          </mxGeometry>
        </mxCell>
        <mxCell id="hrBNU91gVqwCMhpCuoij-762" value="" style="endArrow=classic;html=1;fontFamily=Times New Roman;" edge="1" parent="1" source="hrBNU91gVqwCMhpCuoij-758" target="hrBNU91gVqwCMhpCuoij-754">
          <mxGeometry width="50" height="50" relative="1" as="geometry">
            <mxPoint x="3150" y="920" as="sourcePoint" />
            <mxPoint x="3100" y="964.7368421052632" as="targetPoint" />
          </mxGeometry>
        </mxCell>
        <mxCell id="hrBNU91gVqwCMhpCuoij-763" value="" style="endArrow=classic;html=1;fontFamily=Times New Roman;exitX=-0.014;exitY=0.097;exitDx=0;exitDy=0;exitPerimeter=0;entryX=0.991;entryY=0.824;entryDx=0;entryDy=0;entryPerimeter=0;" edge="1" parent="1" source="hrBNU91gVqwCMhpCuoij-759" target="hrBNU91gVqwCMhpCuoij-754">
          <mxGeometry width="50" height="50" relative="1" as="geometry">
            <mxPoint x="3160" y="930" as="sourcePoint" />
            <mxPoint x="3110" y="974.7368421052632" as="targetPoint" />
          </mxGeometry>
        </mxCell>
        <mxCell id="hrBNU91gVqwCMhpCuoij-764" value="" style="endArrow=classic;html=1;fontFamily=Times New Roman;exitX=0;exitY=0.5;exitDx=0;exitDy=0;entryX=1;entryY=0.5;entryDx=0;entryDy=0;" edge="1" parent="1" source="hrBNU91gVqwCMhpCuoij-754" target="hrBNU91gVqwCMhpCuoij-753">
          <mxGeometry width="50" height="50" relative="1" as="geometry">
            <mxPoint x="2910" y="980" as="sourcePoint" />
            <mxPoint x="2960" y="930" as="targetPoint" />
          </mxGeometry>
        </mxCell>
        <mxCell id="hrBNU91gVqwCMhpCuoij-765" value="header" style="rounded=0;whiteSpace=wrap;html=1;fontFamily=Times New Roman;" vertex="1" parent="1">
          <mxGeometry x="2600" y="970" width="70" height="30" as="geometry" />
        </mxCell>
        <mxCell id="hrBNU91gVqwCMhpCuoij-766" value="profileContainer" style="rounded=0;whiteSpace=wrap;html=1;fontFamily=Times New Roman;" vertex="1" parent="1">
          <mxGeometry x="2720" y="1050" width="90" height="30" as="geometry" />
        </mxCell>
        <mxCell id="hrBNU91gVqwCMhpCuoij-767" value="NewsContainer" style="rounded=0;whiteSpace=wrap;html=1;fontFamily=Times New Roman;" vertex="1" parent="1">
          <mxGeometry x="2940" y="1050" width="90" height="30" as="geometry" />
        </mxCell>
        <mxCell id="hrBNU91gVqwCMhpCuoij-768" value="dialogContainer" style="rounded=0;whiteSpace=wrap;html=1;fontFamily=Times New Roman;" vertex="1" parent="1">
          <mxGeometry x="2832.5" y="1050" width="90" height="30" as="geometry" />
        </mxCell>
      </root>
    </mxGraphModel>
  </diagram>
</mxfile>
